<svg xmlns="http://www.w3.org/2000/svg" width="752" height="335" viewBox="0 0 752 335" fill="none">
<g fill="#111111" fill-rule="evenodd">
<path d="M 396 184 L 395 320 L 428 321 L 430 186 Z"/>
<path d="M 156 183 L 155 278 L 158 294 L 167 310 L 188 322 L 215 323 L 246 307 L 248 321 L 278 321 L 279 185 L 244 185 L 242 277 L 231 290 L 213 295 L 198 289 L 191 277 L 191 184 Z"/>
<path d="M 380 182 L 353 186 L 336 201 L 333 200 L 333 185 L 301 185 L 301 321 L 335 320 L 336 237 L 339 230 L 354 218 L 381 215 Z"/>
<path d="M 66 181 L 38 192 L 18 212 L 8 239 L 9 271 L 19 295 L 38 314 L 65 325 L 96 325 L 127 311 L 139 298 L 144 285 L 114 277 L 97 293 L 71 295 L 61 290 L 45 269 L 45 237 L 60 217 L 74 211 L 96 213 L 114 230 L 142 221 L 143 216 L 125 194 L 109 185 L 95 181 Z"/>
<path d="M 638 188 L 627 198 L 620 214 L 620 229 L 627 244 L 648 257 L 702 270 L 709 278 L 709 286 L 696 297 L 671 298 L 658 292 L 649 277 L 617 284 L 623 301 L 638 315 L 665 324 L 702 323 L 728 312 L 738 301 L 743 288 L 743 270 L 738 258 L 721 245 L 665 233 L 654 225 L 653 216 L 661 207 L 684 204 L 699 210 L 707 224 L 735 220 L 737 213 L 730 200 L 714 186 L 694 179 L 664 179 Z"/>
<path d="M 499 180 L 474 191 L 454 212 L 445 236 L 445 264 L 449 279 L 462 301 L 490 320 L 504 324 L 532 324 L 552 319 L 579 299 L 590 280 L 594 259 L 590 223 L 580 205 L 552 184 L 524 178 Z M 516 207 L 543 214 L 553 225 L 560 247 L 559 262 L 552 279 L 542 289 L 523 295 L 508 294 L 494 287 L 484 275 L 479 260 L 479 241 L 484 227 L 499 212 Z"/>
<path d="M 528 35 L 497 29 L 482 13 L 462 8 L 451 10 L 433 22 L 424 38 L 419 62 L 406 73 L 384 73 L 352 53 L 359 81 L 372 102 L 396 120 L 424 127 L 402 162 L 442 142 L 479 109 L 497 81 L 501 45 Z M 470 31 L 478 35 L 473 44 L 465 40 Z"/>
</g><g fill="#FF8C12" fill-rule="evenodd">
<path d="M 584 83 L 554 93 L 527 115 L 514 137 L 509 159 L 546 163 L 567 172 L 590 192 L 598 205 L 601 205 L 608 194 L 633 171 L 657 162 L 687 160 L 684 142 L 675 121 L 652 99 L 618 84 Z"/>
</g></svg>